<svg width="1024" height="1024" viewBox="0 0 1024 1024" fill="none" xmlns="http://www.w3.org/2000/svg">
  <defs>
    <linearGradient id="bg" x1="120" y1="120" x2="904" y2="904" gradientUnits="userSpaceOnUse">
      <stop offset="0" stop-color="#0B1220"/>
      <stop offset="1" stop-color="#1A2B4A"/>
    </linearGradient>
    <linearGradient id="ring" x1="256" y1="256" x2="768" y2="768" gradientUnits="userSpaceOnUse">
      <stop offset="0" stop-color="#4CE7C9"/>
      <stop offset="1" stop-color="#5AB6FF"/>
    </linearGradient>
    <linearGradient id="pulse" x1="280" y1="512" x2="744" y2="512" gradientUnits="userSpaceOnUse">
      <stop offset="0" stop-color="#63F0D7"/>
      <stop offset="1" stop-color="#73C5FF"/>
    </linearGradient>
    <filter id="glow" x="0" y="0" width="1024" height="1024" filterUnits="userSpaceOnUse">
      <feGaussianBlur stdDeviation="12" result="blur"/>
      <feMerge>
        <feMergeNode in="blur"/>
        <feMergeNode in="SourceGraphic"/>
      </feMerge>
    </filter>
  </defs>

  <rect x="64" y="64" width="896" height="896" rx="224" fill="url(#bg)"/>

  <circle cx="512" cy="512" r="278" stroke="url(#ring)" stroke-width="28" opacity="0.95"/>
  <circle cx="512" cy="512" r="218" stroke="#7CD1FF" stroke-opacity="0.24" stroke-width="8"/>

  <path d="M286 520H382L434 442L492 596L552 472L594 520H736"
        stroke="url(#pulse)" stroke-width="24" stroke-linecap="round" stroke-linejoin="round" filter="url(#glow)"/>

  <g opacity="0.96">
    <path d="M350 754V640H436C479 640 512 669 512 706C512 742 479 770 436 770H393V754H350ZM393 730H430C447 730 460 719 460 706C460 692 447 680 430 680H393V730Z" fill="#DDF5FF"/>
    <path d="M530 754V640H617C660 640 694 669 694 706C694 742 660 770 617 770H573V754H530ZM573 730H611C628 730 642 719 642 706C642 692 628 680 611 680H573V730Z" fill="#DDF5FF"/>
  </g>
</svg>

